<?xml version="1.0" encoding="UTF-8" standalone="no"?>
<svg
   xmlns:dc="http://purl.org/dc/elements/1.1/"
   xmlns:cc="http://creativecommons.org/ns#"
   xmlns:rdf="http://www.w3.org/1999/02/22-rdf-syntax-ns#"
   xmlns:svg="http://www.w3.org/2000/svg"
   xmlns="http://www.w3.org/2000/svg"
   xmlns:sodipodi="http://sodipodi.sourceforge.net/DTD/sodipodi-0.dtd"
   xmlns:inkscape="http://www.inkscape.org/namespaces/inkscape"
   inkscape:export-ydpi="96"
   inkscape:export-xdpi="96"
   inkscape:export-filename="C:\Users\51982\Desktop\LOGOS\Para la Feria\LOGO roqaseg.png"
   width="1015"
   height="545"
   viewBox="0 0 268.55208 144.19793"
   version="1.1"
   id="svg28"
   inkscape:version="1.0 (4035a4fb49, 2020-05-01)"
   sodipodi:docname="PROM_PERÚ.svg">
  <defs
     id="defs22">
    <clipPath
       clipPathUnits="userSpaceOnUse"
       id="clipPath204">
      <path
         d="M 0,595.275 H 841.89 V 0 H 0 Z"
         id="path202" />
    </clipPath>
  </defs>
  <sodipodi:namedview
     id="base"
     pagecolor="#ffffff"
     bordercolor="#666666"
     borderopacity="1.0"
     inkscape:pageopacity="0.0"
     inkscape:pageshadow="2"
     inkscape:zoom="0.7"
     inkscape:cx="650.32415"
     inkscape:cy="302.7497"
     inkscape:document-units="mm"
     inkscape:current-layer="layer1"
     inkscape:document-rotation="0"
     showgrid="false"
     units="px"
     height="1e-05px"
     inkscape:window-width="1825"
     inkscape:window-height="1046"
     inkscape:window-x="-11"
     inkscape:window-y="-11"
     inkscape:window-maximized="1" />
  <metadata
     id="metadata25">
    <rdf:RDF>
      <cc:Work
         rdf:about="">
        <dc:format>image/svg+xml</dc:format>
        <dc:type
           rdf:resource="http://purl.org/dc/dcmitype/StillImage" />
        <dc:title></dc:title>
      </cc:Work>
    </rdf:RDF>
  </metadata>
  <g
     inkscape:label="Capa 1"
     inkscape:groupmode="layer"
     id="layer1">
    <g
       id="g200"
       clip-path="url(#clipPath204)"
       transform="matrix(0.35277777,0,0,-0.35277777,-17.622384,181.35004)">
      <g
         id="g206"
         transform="translate(143.6123,243.123)">
        <path
           d="m 0,0 59.599,1.456 c 0,0 -94.813,97.159 -52.147,177.513 0,0 -35.893,-46.022 -32.51,-92.773 C -21.669,39.445 0,0 0,0"
           style="fill:#c10a25;fill-opacity:1;fill-rule:evenodd;stroke:none"
           id="path208" />
      </g>
      <g
         id="g210"
         transform="translate(184.9224,443.2754)">
        <path
           d="m 0,0 c 0,0 -28.441,-11.686 -14.897,-58.437 13.542,-46.754 46.045,-89.125 86.001,-124.189 39.959,-35.06 111.745,-75.968 128.674,-75.968 H 109.03 c 0,0 -60.948,49.673 -91.421,92.04 -30.477,42.371 -49.437,79.628 -49.437,111.767 0,32.144 13.545,48.944 31.828,54.787"
           style="fill:#c10a25;fill-opacity:1;fill-rule:evenodd;stroke:none"
           id="path212" />
      </g>
      <g
         id="g214"
         transform="translate(294.1968,345.3901)">
        <path
           d="m 0,0 c -0.833,-3.271 -2.562,-8.72 -2.562,-12.134 0,-8.011 8.375,-10.578 15.181,-10.578 13.148,0 21.695,9.223 27.837,19.778 5.297,8.871 10.584,22.583 10.584,32.965 0,13.169 -8.357,18.953 -20.663,18.953 -5.617,0 -10.923,-1.355 -16.219,-2.74 z m -12.627,-41.689 c -0.691,-2.177 -2.394,-7.473 -2.394,-9.551 0,-6.289 5.968,-6.966 10.912,-7.323 1.547,-0.16 4.979,0 4.979,-2.228 0,-1.871 -2.258,-2.221 -3.6,-2.221 l -16.735,0.851 -11.924,-0.661 -9.072,-0.885 c -0.685,-0.145 -1.87,-0.335 -2.743,-0.335 -1.343,0 -2.037,0.53 -2.037,1.881 0,2.72 5.316,2.889 7.162,3.271 2.74,0.327 6.498,1.167 8.372,3.383 2.233,2.746 5.12,12.133 6.153,15.885 L 1.686,43.01 c -2.049,-0.507 -12.944,-5.617 -14.313,-5.617 -0.87,0 -1.722,0.667 -1.722,1.519 0,2.025 3.246,3.068 4.611,3.747 l 13.151,5.658 4.616,15.042 c 1.536,4.891 1.346,5.257 6.636,5.257 2.084,0 5.47,0.846 5.47,-2.067 0,-1.17 -0.514,-2.2 -0.836,-3.19 L 15.707,51.367 c 2.921,0.691 5.634,1.045 8.547,1.384 2.88,0.334 5.956,0.498 8.863,0.498 15.868,0 30.55,-6.82 30.55,-24.775 C 63.667,15.54 56.68,0.839 48.323,-8.72 39.258,-19.329 25.597,-26.983 11.275,-26.983 c -6.504,0 -12.663,3.056 -17.255,7.5 z"
           style="fill:#1d1d1b;fill-opacity:1;fill-rule:nonzero;stroke:none"
           id="path216" />
      </g>
      <g
         id="g218"
         transform="translate(385.6763,376.3027)">
        <path
           d="m 0,0 c 0.867,3.044 2.04,6.826 2.04,9.875 0,1.54 -0.339,3.568 -2.228,3.568 -3.919,0 -10.563,-8.499 -12.624,-11.429 l -1.533,-2.204 c -0.533,-0.691 -1.543,-2.565 -2.558,-2.565 -0.682,0 -1.201,0.504 -1.201,1.2 0,2.72 6.999,10.921 8.708,12.771 3.591,4.116 11.436,11.12 17.071,11.12 C 12.798,22.336 14,16.043 14,12.288 14,8.169 12.798,4.407 11.6,0.661 L 4.274,-23.387 c 6.289,11.248 23.034,45.723 37.709,45.723 5.127,0 8.549,-3.228 8.549,-8.542 0,-4.609 -2.754,-10.056 -7.864,-10.056 -8.529,0 -3.749,8.359 -8.372,8.359 C 29.698,12.097 19.26,-3.279 17.389,-6.319 11.07,-16.255 0,-37.227 -3.244,-48.184 c -1.892,-6.287 -1.357,-7.662 -8.214,-7.662 -1.518,0 -4.758,-0.328 -4.758,2.221 0,0.84 1.024,4.092 1.18,4.771 z"
           style="fill:#1d1d1b;fill-opacity:1;fill-rule:nonzero;stroke:none"
           id="path220" />
      </g>
      <g
         id="g222"
         transform="translate(478.8564,395.2256)">
        <path
           d="m 0,0 c -22.881,0 -34.665,-30.055 -34.665,-49.168 0,-11.782 3.758,-23.924 17.612,-23.924 22.008,0 34.296,32.467 34.296,50.89 C 17.243,-10.583 13.318,0 0,0 m 15.195,-61.257 c -8.202,-8.399 -21.518,-15.561 -33.468,-15.561 -18.073,0 -28.676,16.722 -28.676,33.302 0,23.542 22.189,46.93 45.929,46.93 17.895,0 30.033,-16.416 30.033,-33.299 0,-11.428 -5.627,-23.376 -13.818,-31.372"
           style="fill:#1d1d1b;fill-opacity:1;fill-rule:nonzero;stroke:none"
           id="path224" />
      </g>
      <g
         id="g226"
         transform="translate(546.2578,357.8232)">
        <path
           d="m 0,0 c 7.512,12.16 24.576,40.816 40.467,40.816 7.69,0 10.066,-7.154 10.066,-13.664 0,-4.935 -1.209,-9.906 -2.707,-14.515 L 42.529,-4.75 c 5.801,10.418 11.584,20.978 19.261,30.055 5.469,6.466 16.384,15.511 25.446,15.511 6.664,0 10.743,-3.747 10.743,-10.239 0,-5.617 -2.052,-11.436 -3.738,-16.723 L 81.43,-21.323 c -0.85,-2.225 -1.377,-3.58 -1.377,-5.942 0,-1.745 0.87,-3.288 2.739,-3.288 5.463,0 14.83,13.33 17.581,17.589 0.349,0.531 0.873,1.37 1.533,1.37 0.87,0 1.394,-0.517 1.394,-1.179 0,-3.086 -6.677,-11.082 -8.56,-13.149 -4.257,-4.953 -13.31,-13.494 -20.495,-13.494 -4.943,0 -6.63,3.056 -6.63,7.654 0,5.161 3.063,13.509 4.742,18.494 l 8.916,24.543 c 1.519,3.925 4.429,12.148 4.429,16.234 0,4.092 -1.858,5.626 -5.649,5.626 -8.505,0 -19.784,-14.846 -24.058,-21.169 C 48.33,0.712 38.431,-18.048 34.487,-31.053 c -1.54,-5.307 -1.027,-6.314 -7.005,-6.314 -1.184,0 -5.806,-0.67 -5.806,1.891 0,0.694 1.2,4.262 1.358,4.923 L 37.21,15.9 c 1.048,3.241 2.394,7.523 2.394,10.919 0,3.251 -1.346,6.137 -4.926,6.137 -6.855,0 -17.443,-13.143 -20.868,-17.574 -9.039,-11.94 -19.963,-31.747 -24.233,-46.09 -2.073,-6.51 -1.176,-6.659 -7.147,-6.659 -1.716,0 -5.463,-0.67 -5.463,2.067 0,1.505 0.674,3.538 1.015,4.925 l 15.195,49.361 c 0.852,3.079 1.892,6.129 1.892,9.369 0,1.192 -0.525,3.079 -2.067,3.079 -3.929,0 -12.634,-10.101 -14.692,-13.145 -0.669,-1.043 -2.015,-3.404 -3.403,-3.404 -0.838,0 -1.211,0.694 -1.211,1.343 0,1.885 7.185,10.251 8.56,11.617 4.599,4.62 13.473,12.971 20.472,12.971 4.271,0 4.608,-4.783 4.608,-8.015 0,-4.595 -1.189,-9.378 -2.565,-13.815 L -2.2,-3.737 Z"
           style="fill:#1d1d1b;fill-opacity:1;fill-rule:nonzero;stroke:none"
           id="path228" />
      </g>
      <g
         id="g230"
         transform="translate(452.1543,285.0039)">
        <path
           d="m 0,0 c -5.313,5.463 -13.153,8.846 -20.828,8.846 -7.002,0 -15.019,-2.52 -19.29,-8.846 -2.91,-3.275 -2.91,-7.874 -2.91,-11.763 v -26.469 c 0,-6.158 0.513,-12.321 5.459,-16.749 3.762,-3.067 9.739,-4.955 14.862,-4.955 19.637,0 31.746,17.26 31.746,35.03 C 9.039,-15.908 6.3,-6.679 0,0 m -54.817,-11.447 c 0,2.398 0.184,9.045 -1.702,10.912 -1.009,1.227 -3.57,1.376 -4.922,1.376 h -2.24 c -1.013,0 -2.04,0.336 -2.04,1.388 0,2.013 2.385,2.329 3.927,2.876 4.075,1.221 11.434,5.625 14.159,8.852 0.857,0.884 1.7,2.239 3.073,2.239 1.71,0 1.534,-1.516 1.534,-2.698 V 4.087 c 8.876,7.344 18.451,11.936 28.836,12.109 9.583,0.169 19.317,-5.277 25.773,-11.954 6.836,-7.18 10.429,-17.059 10.429,-26.944 0,-23.56 -18.758,-40.47 -42.693,-40.324 -6.467,0 -11.066,1.555 -17.042,3.568 -1.029,0.215 -2.918,0.883 -3.923,0.883 -2.074,0 -1.38,-4.057 -1.38,-5.133 v -18.246 c 0,-7.344 -1.534,-13.157 7.687,-13.998 1.691,-0.168 4.765,0 4.765,-2.229 0,-1.341 -0.846,-1.883 -2.043,-1.883 -5.463,0 -10.936,0.697 -16.038,0.697 -5.47,0 -10.945,-0.697 -16.216,-0.697 -1.202,0 -2.375,0.326 -2.375,1.706 0,2.603 2.873,2.238 4.762,2.406 9.211,0.841 7.669,6.654 7.669,13.998 z"
           style="fill:#1d1d1b;fill-opacity:1;fill-rule:nonzero;stroke:none"
           id="path232" />
      </g>
      <g
         id="g234"
         transform="translate(523.1299,274.543)">
        <path
           d="m 0,0 c 5.284,0 14.837,0.193 19.811,1.412 3.764,0.86 6.303,2.706 6.303,6.811 0,3.603 -2.052,7.522 -4.429,10.053 -3.781,3.958 -9.403,5.313 -14.871,5.313 -8.684,0 -17.078,-4.282 -22.182,-11.436 -1.538,-1.879 -4.259,-7.183 -4.259,-9.881 0,-2.756 3.926,-2.272 5.761,-2.272 z m -14.01,-4.048 c -5.283,0 -7.004,0.316 -7.004,-5.313 0,-19.137 12.476,-35.693 33.117,-35.693 16.744,0 23.033,11.125 25.285,11.125 0.842,0 1.369,-0.699 1.369,-1.389 0,-2.043 -5.491,-6.641 -6.67,-7.664 -8.025,-6.832 -16.404,-9.583 -26.964,-9.583 -22.366,0 -38.948,17.937 -38.948,39.273 0,11.609 3.245,20.668 12.305,28.513 8.548,7.528 19.143,11.436 30.731,11.436 9.209,0 18.617,-3.258 24.6,-10.569 3.392,-4.262 5.953,-11.63 5.953,-17.259 0,-1.368 -0.357,-2.877 -2.055,-2.877 z"
           style="fill:#1d1d1b;fill-opacity:1;fill-rule:nonzero;stroke:none"
           id="path236" />
      </g>
      <g
         id="g238"
         transform="translate(588.5176,273.5566)">
        <path
           d="m 0,0 c 0,2.398 0.148,9.045 -1.73,10.912 -1.021,1.228 -3.578,1.376 -4.947,1.376 h -2.209 c -1.036,0 -2.055,0.336 -2.055,1.388 0,2.013 2.393,2.329 3.925,2.877 4.097,1.22 11.436,5.625 14.155,8.851 0.861,0.884 1.706,2.24 3.09,2.24 1.703,0 1.53,-1.517 1.53,-2.699 v -8.392 c 0,-0.715 -0.341,-3.58 0.843,-3.58 1.711,0 8.388,13.682 20.164,13.682 5.102,0 9.72,-3.086 9.72,-8.212 0,-4.267 -3.081,-6.829 -7.163,-6.829 -5.795,0 -6.151,6.49 -10.917,6.49 -3.755,0 -6.68,-3.588 -8.712,-6.149 C 11.582,6.135 11.759,1.701 11.759,-5.121 v -26.954 c 0,-7.388 -1.53,-13.164 7.697,-14.032 1.693,-0.162 4.761,0 4.761,-2.225 0,-1.383 -0.863,-1.883 -2.047,-1.883 -5.444,0 -10.9,0.694 -16.052,0.694 -5.448,0 -10.916,-0.694 -16.211,-0.694 -1.193,0 -2.39,0.381 -2.39,1.727 0,2.58 2.912,2.219 4.8,2.381 C 1.514,-45.239 0,-39.463 0,-32.075 Z"
           style="fill:#1d1d1b;fill-opacity:1;fill-rule:nonzero;stroke:none"
           id="path240" />
      </g>
      <g
         id="g242"
         transform="translate(673.4912,312.4756)">
        <path
           d="m 0,0 c -1.039,-0.333 -3.75,-1.876 -4.98,-1.876 -0.679,0 -1.162,0.693 -1.162,1.39 0,1.325 2.728,2.714 3.398,3.208 L 19.963,19.62 c 2.39,1.905 5.818,4.591 9.053,4.591 2.213,0 4.261,-1.846 4.261,-4.222 0,-4.301 -5.296,-6.004 -8.523,-7.701 z m 39.242,-67.962 c 0,-6.63 -1.346,-11.93 6.845,-11.256 l 2.218,0.19 c 1.031,0 2.204,-0.19 2.204,-1.37 0,-1.573 -2.55,-1.886 -3.58,-2.203 -5.968,-1.731 -12.11,-3.626 -17.074,-7.348 -0.348,-0.155 -1.379,-1.031 -1.874,-1.031 -0.844,0 -0.844,0.482 -0.844,1.391 v 4.069 c 0,0.859 0.844,7.006 -1.356,7.006 -2.57,0 -10.604,-11.984 -26.109,-11.984 -8.387,0 -15.225,3.435 -20.151,9.947 -5.471,6.96 -5.123,15.696 -5.123,24.068 v 25.926 c 0,7.172 1.702,13.676 -7.695,13.676 -1.542,0 -4.609,0 -4.609,2.347 0,1.352 0.843,1.019 2.222,1.019 h 19.136 c 3.557,0 2.71,-3.556 2.71,-6.141 v -36.827 c 0,-5.641 0,-14.183 3.104,-19.133 3.395,-5.653 10.734,-7.868 17.042,-7.868 7.32,0 13.483,2.374 18.255,7.708 3.586,3.915 2.908,7.814 2.908,12.62 v 32.599 c 0,7.172 1.735,13.676 -7.508,13.676 -1.544,0 -4.786,0 -4.786,2.193 0,1.506 1.036,1.173 2.402,1.173 h 19.793 c 2.702,0 1.87,-2.365 1.87,-4.232 z"
           style="fill:#1d1d1b;fill-opacity:1;fill-rule:nonzero;stroke:none"
           id="path244" />
      </g>
    </g>
  </g>
</svg>
